<svg width="250" height="250" viewBox="0 0 250 250" fill="none" xmlns="http://www.w3.org/2000/svg">
<rect width="250" height="250" rx="50" fill="black"/>
<path d="M119.896 108.368C120.237 108.368 120.877 108.709 121.816 109.392C122.755 110.075 123.736 110.416 124.76 110.416H124.888C127.789 110.416 130.093 109.264 131.8 106.96C133.507 104.656 134.445 102.352 134.616 100.048L135 96.592C135 93.3493 134.488 90.576 133.464 88.272C132.525 85.8827 131.416 84.1333 130.136 83.024C128.856 81.8293 127.363 80.9333 125.656 80.336C123.523 79.4827 121.261 79.056 118.872 79.056C116.568 79.056 114.691 79.312 113.24 79.824C111.789 80.2507 110.979 80.6773 110.808 81.104L110.68 81.872C109.912 93.392 109.528 103.717 109.528 112.848C109.528 121.893 109.656 129.701 109.912 136.272C110.253 142.843 110.552 147.92 110.808 151.504C111.149 155.003 111.32 156.923 111.32 157.264C111.32 159.397 109.443 161.104 105.688 162.384C101.933 163.664 98.2213 164.304 94.552 164.304C92.8453 164.304 91.992 163.877 91.992 163.024C91.992 162.768 92.12 162.171 92.376 161.232C93.9973 157.477 94.808 140.027 94.808 108.88C94.808 90.5333 93.5707 80.0373 91.096 77.392C90.584 76.88 90.328 76.368 90.328 75.856C90.328 75.2587 90.9253 74.6187 92.12 73.936C93.4 73.2533 96.8987 72.4853 102.616 71.632C108.333 70.6933 114.392 70.224 120.792 70.224C130.861 70.224 138.413 72.9547 143.448 78.416C148.568 83.8773 151.128 90.4053 151.128 98C151.128 105.509 149.037 112.037 144.856 117.584C140.76 123.131 135.384 125.904 128.728 125.904C126.595 125.904 124.461 125.52 122.328 124.752C118.061 123.216 115.928 120.016 115.928 115.152C115.928 114.128 116.269 112.763 116.952 111.056C117.635 109.264 118.616 108.368 119.896 108.368Z" fill="white"/>
</svg>

